<svg version="1.1" xmlns="http://www.w3.org/2000/svg" xmlns:xlink="http://www.w3.org/1999/xlink" width="178.24539" height="108.43089" viewBox="0,0,178.24539,108.43089"><g transform="translate(-151.75,-121.15245)"><g data-paper-data="{&quot;isPaintingLayer&quot;:true}" stroke-miterlimit="10" stroke-dasharray="" stroke-dashoffset="0" style="mix-blend-mode: normal"><path d="M153,228.33334v-94h174v94z" fill="#ff0000" fill-rule="nonzero" stroke="#000000" stroke-width="2.5" stroke-linecap="butt" stroke-linejoin="miter"/><g fill-rule="evenodd"><path d="M180.03655,206.50976c0.57078,0.20758 1.81374,0.54349 0.70761,3.20558c-1.10611,2.66198 -5.72722,4.0674 -6.29161,4.18161c-2.51113,0.65519 -5.15863,0.92674 -7.73965,0.65612c-8.81647,-1.03537 -10.74582,-9.98604 -8.40133,-11.89998c2.39514,-1.95362 4.68852,3.28092 9.09304,5.88494c1.75838,0.9953 3.72429,1.41987 5.75674,1.30221c2.48431,-0.06224 6.26481,-3.58877 6.87521,-3.33049z" fill="#f9a41f" stroke="none" stroke-width="1" stroke-linecap="butt" stroke-linejoin="miter"/><path d="M162.25623,204.14584c1.48247,1.37427 4.24942,3.8692 4.24942,3.8692c-1.28091,0.34741 -2.37469,1.03878 -3.23063,2.03459c-1.14281,1.46502 0.03073,3.48937 -1.1505,3.02345c-1.56648,-1.06351 -2.90798,-2.46628 -3.804,-4.13554c-1.19099,-2.25582 -1.04096,-5.72303 0.23353,-6.39229c1.36492,-0.65817 2.23067,0.13598 3.70218,1.60059z" fill="#ffffff" stroke="none" stroke-width="1" stroke-linecap="butt" stroke-linejoin="miter"/><path d="M180.03655,206.50976c0.57078,0.20758 1.81374,0.54349 0.70761,3.20558c-1.10611,2.66198 -5.72722,4.0674 -6.29161,4.18161c-2.51113,0.65519 -5.15863,0.92674 -7.73965,0.65612c-8.81647,-1.03537 -10.74582,-9.98604 -8.40133,-11.89998c2.39514,-1.95362 4.68852,3.28092 9.09304,5.88494c1.75838,0.9953 3.72429,1.41987 5.75674,1.30221c2.48431,-0.06224 6.26481,-3.58877 6.87521,-3.33049z" fill="none" stroke="#231f20" stroke-width="0.85738" stroke-linecap="round" stroke-linejoin="round"/></g><g fill-rule="evenodd"><path d="M216.29066,186.51055c4.37218,-1.61943 10.40035,-7.39278 12.30876,-9.86468c3.05113,-3.93704 8.73885,1.66793 4.29589,6.85596c-4.49368,5.22777 -16.43587,7.61575 -16.43587,7.61575c-2.97401,0.69016 -4.59171,-2.94804 -0.16878,-4.60703z" fill="#f9a41f" stroke="none" stroke-width="1" stroke-linecap="butt" stroke-linejoin="miter"/><path d="M216.29066,186.51055c4.37218,-1.61943 10.40035,-7.39278 12.30876,-9.86468c3.05113,-3.93704 8.73885,1.66793 4.29589,6.85596c-4.49368,5.22777 -16.43587,7.61575 -16.43587,7.61575c-2.97401,0.69016 -4.59171,-2.94804 -0.16878,-4.60703z" fill="none" stroke="#231f20" stroke-width="0.85738" stroke-linecap="round" stroke-linejoin="round"/></g><g fill-rule="evenodd"><path d="M184.69964,201.6034c-1.55373,-0.41981 -3.08995,-0.60821 -4.65952,-0.52553c-1.88363,-1.46931 -3.40118,-3.30648 -4.42255,-5.44976c2.88075,0.44502 5.67744,1.20075 8.42986,2.31795c2.2038,0.72897 3.55041,4.33382 0.65221,3.65733z" fill="#231f20" stroke="#231f20" stroke-width="0.85738" stroke-linecap="round" stroke-linejoin="round" opacity="0.1"/><path d="M184.63806,201.52459c-8.50273,-2.09756 -9.91445,2.68255 -14.29179,2.09984c-3.52435,-0.43216 -5.71622,-5.74594 0.82302,-7.83342c4.53077,-1.41649 12.7658,2.11593 12.7658,2.11593c2.33381,0.7907 3.6408,4.34485 0.70297,3.61766z" fill="#f9a41f" stroke="none" stroke-width="1" stroke-linecap="butt" stroke-linejoin="miter"/><path d="M184.63806,201.52459c-8.50273,-2.09756 -9.91445,2.68255 -14.29179,2.09984c-3.52435,-0.43216 -5.71622,-5.74594 0.82302,-7.83342c4.53077,-1.41649 12.7658,2.11593 12.7658,2.11593c2.33381,0.7907 3.6408,4.34485 0.70297,3.61766z" fill="none" stroke="#231f20" stroke-width="0.85738" stroke-linecap="round" stroke-linejoin="round"/></g><g fill-rule="evenodd"><path d="M200.80882,201.30625c0,0 -3.80053,7.05558 -13.59519,15.11886c-9.54102,7.86507 -15.94565,9.60215 -17.50622,6.24618c-1.93484,-4.044 2.35976,-5.03081 4.75667,-6.2504c2.12576,-1.25278 3.90579,-3.05246 5.09764,-5.29123l-2.11216,-2.59812c0.01108,-0.09033 16.47541,-17.28806 23.35925,-7.22529z" fill="#f9a41f" stroke="none" stroke-width="1" stroke-linecap="butt" stroke-linejoin="miter"/><path d="M196.71071,201.81272c0.34741,1.28091 -4.7183,8.18128 -8.94767,10.50619c-1.82143,1.01494 -4.21059,0.67605 -3.90034,-1.85427c0.42584,-3.84619 7.72556,-9.14254 7.72556,-9.14254z" fill="#ffffff" stroke="none" stroke-width="1" stroke-linecap="butt" stroke-linejoin="miter"/><path d="M200.80882,201.30625c0,0 -3.80053,7.05558 -13.59519,15.11886c-9.54102,7.86507 -15.54926,10.10936 -17.50622,6.24618c-2.07593,-4.01541 2.39938,-4.98011 4.75667,-6.2504c2.0243,-1.17349 3.96936,-2.44849 5.79544,-3.87561l-2.80995,-4.01374c0.01108,-0.09033 16.47541,-17.28806 23.35925,-7.22529z" fill="none" stroke="#231f20" stroke-width="0.85738" stroke-linecap="round" stroke-linejoin="round"/></g><g fill-rule="evenodd"><g><path d="M191.83695,162.64371l2.88711,-8.95624l6.07,7.34875c3.14541,0.15641 6.19108,1.12621 8.81516,2.91559c4.36024,2.9655 5.71794,6.48002 5.71794,6.48002c0,0 4.12962,-1.51153 7.34245,3.33122c6.15916,9.24013 -2.19683,21.65343 -17.82281,27.90081c-11.7674,4.70266 -24.12269,1.85736 -28.18119,-7.30853c-3.66676,-8.2465 -1.23884,-13.08547 -1.23884,-13.08547l-8.189,-12.88292l12.99079,1.77656c1.46931,-1.88363 3.27799,-3.54226 5.35305,-4.75542c1.9736,-1.13386 4.05498,-2.02518 6.25534,-2.76438z" fill="#f9a41f" stroke="none" stroke-width="1" stroke-linecap="butt" stroke-linejoin="miter"/><path d="M215.32715,170.43183c2.5222,-0.74552 4.44854,-0.3717 7.34245,3.33122c3.89605,4.8807 3.76531,19.03652 -17.82281,27.90081c-7.34452,3.04361 -16.59189,3.65231 -18.86398,-6.99146c-2.10064,-9.79724 13.80839,-10.87324 18.56547,-14.50933c4.66669,-3.64712 4.92755,-8.01804 10.77886,-9.73124z" fill="#ffffff" stroke="none" stroke-width="1" stroke-linecap="butt" stroke-linejoin="miter"/><g fill="none" stroke="#231f20" stroke-width="0.85738" stroke-linecap="round" stroke-linejoin="round"><path d="M191.83695,162.64371l2.88711,-8.95624l6.07,7.34875c3.14541,0.15641 6.19108,1.12621 8.81516,2.91559c4.36024,2.9655 5.71794,6.48002 5.71794,6.48002c0,0 4.12962,-1.51153 7.34245,3.33122c6.15916,9.24013 -2.19683,21.65343 -17.82281,27.90081c-11.7674,4.70266 -24.12269,1.85736 -28.18119,-7.30853c-3.66676,-8.2465 -1.23884,-13.08547 -1.23884,-13.08547l-8.189,-12.88292l12.99079,1.77656c1.46931,-1.88363 3.27799,-3.54226 5.35305,-4.75542c1.9736,-1.13386 4.05498,-2.02518 6.25534,-2.76438z"/></g></g><path d="M180.22856,170.1635l1.21447,0.19483" fill="none" stroke="#231f20" stroke-width="0.85738" stroke-linecap="round" stroke-linejoin="round"/></g><g fill="none" fill-rule="evenodd" stroke="#231f20" stroke-width="0.85738" stroke-linecap="round" stroke-linejoin="round"><path d="M179.93956,196.66264c0,0 -2.44124,1.58101 -3.76649,2.28994c-1.41563,0.6978 -2.87088,1.34489 -4.40542,1.89052"/><path d="M167.70314,193.96955c1.83423,-0.37129 3.6463,-0.56182 5.43615,-0.57165c1.84066,-0.04944 3.74943,0.0929 5.59642,0.36531"/></g><path d="M208.09213,164.72891c3.6753,2.19358 5.51334,5.90459 4.18045,8.17191c-1.38363,2.30688 -5.46595,2.31079 -9.1412,0.11728c-3.6753,-2.19358 -5.51334,-5.90459 -4.18045,-8.17191c1.29326,-2.31802 5.46595,-2.31079 9.1412,-0.11728z" fill="#ffffff" fill-rule="evenodd" stroke="#231f20" stroke-width="0.85738" stroke-linecap="round" stroke-linejoin="round"/><path d="M208.42552,167.24641c0.47574,0.60873 0.31416,1.55201 -0.29457,2.02774c-0.60867,0.47569 -1.55201,0.31416 -2.0277,-0.29451c-0.47574,-0.60873 -0.376,-1.42201 0.19306,-1.94851c0.65944,-0.51536 1.65352,-0.3934 2.12921,0.21527v0" fill="#231f20" fill-rule="evenodd" stroke="none" stroke-width="1" stroke-linecap="butt" stroke-linejoin="miter"/><path d="M191.8724,175.44402c3.6753,2.19358 5.33906,6.20423 3.67957,8.89015c-1.65939,2.68593 -5.97787,3.11942 -9.60242,0.88627c-3.71492,-2.24428 -5.339,-6.20428 -3.67957,-8.89015c1.65943,-2.68587 5.97793,-3.11946 9.60242,-0.88627z" fill="#ffffff" fill-rule="evenodd" stroke="#231f20" stroke-width="0.85738" stroke-linecap="round" stroke-linejoin="round"/><path d="M192.17255,178.23261c0.27281,0.76733 -0.05839,1.59806 -0.82567,1.87092c-0.76727,0.27276 -1.59806,-0.05839 -1.87087,-0.82572c-0.2839,-0.67689 0.0473,-1.50762 0.7242,-1.79152c0.73869,-0.41396 1.65985,-0.07167 1.97234,0.74632v0" fill="#231f20" fill-rule="evenodd" stroke="none" stroke-width="1" stroke-linecap="butt" stroke-linejoin="miter"/><g fill-rule="evenodd" stroke="#231f20" stroke-width="0.85738" stroke-linecap="round" stroke-linejoin="round"><path d="M203.15608,178.79992c1.14453,-0.73104 2.96424,-2.48006 3.85388,-1.1326c0.3346,0.63727 0.33035,3.66376 -1.04564,4.41226c-1.37595,0.74856 -4.78137,0.46846 -5.23024,-0.73315c-0.44887,-1.20162 1.37893,-1.89476 2.422,-2.54651z" fill="#231f20"/><path d="M212.3519,182.72534c0.83893,1.38709 -8.0461,7.26874 -9.01027,5.40764" fill="none"/></g><g fill-rule="evenodd"><path d="M182.48734,206.92752c1.02132,2.14322 -0.38276,5.36495 -3.07753,7.14419c-2.69487,1.77923 -5.63735,1.46422 -6.60797,-0.71863c-0.97066,-2.18291 0.38272,-5.36501 3.03796,-7.19494c2.69476,-1.77924 5.67693,-1.41357 6.64753,0.76938z" fill="#f9a41f" stroke="none" stroke-width="1" stroke-linecap="butt" stroke-linejoin="miter"/><path d="M182.48734,206.92752c1.02132,2.14322 -0.38276,5.36495 -3.07753,7.14419c-2.69487,1.77923 -5.63735,1.46422 -6.60797,-0.71863c-0.97066,-2.18291 0.38272,-5.36501 3.03796,-7.19494c2.69476,-1.77924 5.67693,-1.41357 6.64753,0.76938z" fill="none" stroke="#231f20" stroke-width="0.85738" stroke-linecap="round" stroke-linejoin="round"/></g><g fill="none" fill-rule="evenodd" stroke="#231f20" stroke-width="0.85738" stroke-linecap="round" stroke-linejoin="round"><path d="M226.52362,165.73051c-0.56733,1.26048 -1.39472,2.39732 -2.39174,3.42162c-1.44244,1.29074 -2.87386,2.49109 -4.42419,3.53928"/><path d="M229.2343,173.17179c-1.00344,0.70245 -2.08614,1.30349 -3.20846,1.85383c-1.4553,0.64703 -2.88844,1.11341 -4.38968,1.3879"/></g><text transform="translate(207.9522,163.81984) scale(1.09685,1.09685)" font-size="40" xml:space="preserve" fill="#ffffff" fill-rule="nonzero" stroke="none" stroke-width="1" stroke-linecap="butt" stroke-linejoin="miter" stroke-miterlimit="10" stroke-dasharray="" stroke-dashoffset="0" font-family="Curly" font-weight="normal" text-anchor="start" style="mix-blend-mode: normal"><tspan x="0" dy="0">crazy+</tspan></text><path d="M176.4522,161.66144l22.5,-15" fill="none" fill-rule="nonzero" stroke="#ffde00" stroke-width="2.5" stroke-linecap="round" stroke-linejoin="miter"/><path d="M253.9522,175.16144l-33,25.5" fill="none" fill-rule="nonzero" stroke="#ffde00" stroke-width="2.5" stroke-linecap="round" stroke-linejoin="miter"/><path d="M276.9522,174.16144l-60.5,44.5" fill="none" fill-rule="nonzero" stroke="#ffde00" stroke-width="2.5" stroke-linecap="round" stroke-linejoin="miter"/><path d="M281.9522,185.66144l-14.5,9" fill="none" fill-rule="nonzero" stroke="#ffde00" stroke-width="2.5" stroke-linecap="round" stroke-linejoin="miter"/><path d="M303.9522,190.66144l-53,34.5" fill="none" fill-rule="nonzero" stroke="#ffde00" stroke-width="2.5" stroke-linecap="round" stroke-linejoin="miter"/><path d="M257.4522,208.66144l-13,10" fill="none" fill-rule="nonzero" stroke="#ffde00" stroke-width="2.5" stroke-linecap="round" stroke-linejoin="miter"/><path d="M322.4522,185.16144l-47.5,33.5" fill="none" fill-rule="nonzero" stroke="#ffde00" stroke-width="2.5" stroke-linecap="round" stroke-linejoin="miter"/><path d="M320.4522,199.16144l-34,24.5" fill="none" fill-rule="nonzero" stroke="#ffde00" stroke-width="2.5" stroke-linecap="round" stroke-linejoin="miter"/><path d="M320.9522,210.16144l-4.5,3" fill="none" fill-rule="nonzero" stroke="#ffde00" stroke-width="2.5" stroke-linecap="round" stroke-linejoin="miter"/><path d="M322.4522,216.16144l-12.5,7" fill="none" fill-rule="nonzero" stroke="#ffde00" stroke-width="2.5" stroke-linecap="round" stroke-linejoin="miter"/><path d="M306.9522,215.66144l-5.5,5" fill="none" fill-rule="nonzero" stroke="#ffde00" stroke-width="2.5" stroke-linecap="round" stroke-linejoin="miter"/><path d="M185.9522,141.16144l-24,14.5" fill="none" fill-rule="nonzero" stroke="#ffde00" stroke-width="2.5" stroke-linecap="round" stroke-linejoin="miter"/><path d="M171.9522,138.66144l-11,8" fill="none" fill-rule="nonzero" stroke="#ffde00" stroke-width="2.5" stroke-linecap="round" stroke-linejoin="miter"/></g></g></svg>