<svg version="1.1" xmlns="http://www.w3.org/2000/svg" xmlns:xlink="http://www.w3.org/1999/xlink" width="176.5" height="120.43555" viewBox="0,0,176.5,120.43555"><defs><radialGradient cx="187.65249" cy="191.08476" r="29.06734" gradientUnits="userSpaceOnUse" id="color-1"><stop offset="0" stop-color="#ceff36"/><stop offset="1" stop-color="#ffab36"/></radialGradient><radialGradient cx="161.80742" cy="167.5948" r="8.45989" gradientUnits="userSpaceOnUse" id="color-2"><stop offset="0" stop-color="#ceff36"/><stop offset="1" stop-color="#ffab36"/></radialGradient><radialGradient cx="216.53026" cy="217.36567" r="8.67682" gradientUnits="userSpaceOnUse" id="color-3"><stop offset="0" stop-color="#ceff36"/><stop offset="1" stop-color="#ffab36"/></radialGradient></defs><g transform="translate(-151.75,-113.18562)"><g data-paper-data="{&quot;isPaintingLayer&quot;:true}" stroke-miterlimit="10" stroke-dasharray="" stroke-dashoffset="0" style="mix-blend-mode: normal"><path d="M153,227.00001v-94h174v94z" fill="#ff0000" fill-rule="nonzero" stroke="#000000" stroke-width="2.5" stroke-linecap="butt" stroke-linejoin="miter"/><text transform="translate(154.95304,159.6863) scale(1.19539,1.19539)" font-size="40" xml:space="preserve" fill="#ffffff" fill-rule="nonzero" stroke="none" stroke-width="1" stroke-linecap="butt" stroke-linejoin="miter" stroke-miterlimit="10" stroke-dasharray="" stroke-dashoffset="0" font-family="Curly" font-weight="normal" text-anchor="start" style="mix-blend-mode: normal"><tspan x="0" dy="0">crazy</tspan><tspan x="0" dy="46.15px">    模式</tspan></text><path d="M276.76404,164.77731c0.29359,0.39168 0.98413,1.16627 -0.93574,2.47474c-1.91981,1.30841 -5.65722,0.21946 -6.08836,0.04771c-1.98308,-0.66496 -3.88906,-1.64887 -5.51116,-2.96929c-5.49201,-4.58524 -2.84789,-11.47477 -0.42233,-11.73254c2.47723,-0.26222 1.71696,4.28053 3.54071,7.97915c0.7476,1.4467 1.88682,2.59981 3.30998,3.41642c1.70359,1.05319 5.80893,0.34046 6.1069,0.78382z" fill="#f9a41f" fill-rule="evenodd" stroke="none" stroke-width="1" stroke-linecap="butt" stroke-linejoin="miter"/><path d="M265.80983,155.34405c0.39438,1.58075 1.16136,4.48386 1.16136,4.48386c-1.01738,-0.33029 -2.06013,-0.346 -3.07663,-0.05147c-1.41689,0.48464 -1.51753,2.36782 -2.1091,1.53272c-0.58806,-1.40812 -0.87477,-2.94596 -0.74342,-4.4672c0.19091,-2.04704 1.82063,-4.32021 2.97556,-4.20991c1.21106,0.15765 1.44508,1.07512 1.79224,2.71199z" fill="#ffffff" fill-rule="evenodd" stroke="none" stroke-width="1" stroke-linecap="butt" stroke-linejoin="miter"/><path d="M276.76404,164.77731c0.29359,0.39168 0.98413,1.16627 -0.93574,2.47474c-1.91981,1.30841 -5.65722,0.21946 -6.08836,0.04771c-1.98308,-0.66496 -3.88906,-1.64887 -5.51116,-2.96929c-5.49201,-4.58524 -2.84789,-11.47477 -0.42233,-11.73254c2.47723,-0.26222 1.71696,4.28053 3.54071,7.97915c0.7476,1.4467 1.88682,2.59981 3.30998,3.41642c1.70359,1.05319 5.80893,0.34046 6.1069,0.78382z" fill="none" fill-rule="evenodd" stroke="#231f20" stroke-width="0.85738" stroke-linecap="round" stroke-linejoin="round"/><path d="M310.04107,167.26627c3.66381,0.83482 10.27613,-0.40296 12.65346,-1.22944c3.7942,-1.31124 5.16078,4.9778 -0.12398,6.51951c-5.33649,1.54615 -14.44657,-2.10731 -14.44657,-2.10731c-2.31081,-0.84542 -1.79839,-4.01325 1.9171,-3.18275z" fill="#f9a41f" fill-rule="evenodd" stroke="none" stroke-width="1" stroke-linecap="butt" stroke-linejoin="miter"/><path d="M310.04107,167.26627c3.66381,0.83482 10.27613,-0.40296 12.65346,-1.22944c3.7942,-1.31124 5.16078,4.9778 -0.12398,6.51951c-5.33649,1.54615 -14.44657,-2.10731 -14.44657,-2.10731c-2.31081,-0.84542 -1.79839,-4.01325 1.9171,-3.18275z" fill="none" fill-rule="evenodd" stroke="#231f20" stroke-width="0.85738" stroke-linecap="round" stroke-linejoin="round"/><path d="M282.07315,163.5227c-0.86323,-0.9682 -1.81666,-1.77254 -2.91209,-2.40869c-0.62314,-1.82172 -0.83713,-3.73026 -0.58139,-5.62658c1.74745,1.57021 3.30121,3.313 4.66575,5.28016c1.16553,1.46336 0.48492,4.48919 -1.17227,2.75511z" fill="#231f20" fill-rule="evenodd" stroke="#231f20" stroke-width="0.85738" stroke-linecap="round" stroke-linejoin="round" opacity="0.1"/><path d="M282.06633,163.44238c-4.81207,-5.16359 -7.87183,-2.5608 -10.56832,-4.88368c-2.18735,-1.84526 -1.32366,-6.39672 4.0086,-4.92236c3.68135,1.04165 7.68025,7.05532 7.68025,7.05532c1.22604,1.56233 0.54104,4.53648 -1.12053,2.75072z" fill="#f9a41f" fill-rule="evenodd" stroke="none" stroke-width="1" stroke-linecap="butt" stroke-linejoin="miter"/><path d="M282.06633,163.44238c-4.81207,-5.16359 -7.87183,-2.5608 -10.56832,-4.88368c-2.18735,-1.84526 -1.32366,-6.39672 4.0086,-4.92236c3.68135,1.04165 7.68025,7.05532 7.68025,7.05532c1.22604,1.56233 0.54104,4.53648 -1.12053,2.75072z" fill="none" fill-rule="evenodd" stroke="#231f20" stroke-width="0.85738" stroke-linecap="round" stroke-linejoin="round"/><path d="M293.07295,170.42382c0,0 -5.67461,3.08494 -15.83767,4.20731c-9.90455,1.10045 -14.99152,-0.55099 -14.56497,-3.50322c0.47734,-3.58144 3.80992,-2.35399 5.96475,-2.12018c1.98653,0.09188 3.98088,-0.33765 5.77196,-1.32272l-0.2797,-2.68407c0.04729,-0.05606 18.73722,-4.40113 18.94563,5.42288z" fill="#f9a41f" fill-rule="evenodd" stroke="none" stroke-width="1" stroke-linecap="butt" stroke-linejoin="miter"/><path d="M290.0847,168.95891c-0.33029,1.01738 -6.79008,3.43986 -10.66854,3.14398c-1.67634,-0.11819 -3.1389,-1.40008 -1.8141,-2.9705c1.98287,-2.40729 9.24283,-2.76268 9.24283,-2.76268z" fill="#ffffff" fill-rule="evenodd" stroke="none" stroke-width="1" stroke-linecap="butt" stroke-linejoin="miter"/><path d="M293.07295,170.42382c0,0 -5.67461,3.08494 -15.83767,4.20731c-9.90455,1.10045 -14.94767,-0.03403 -14.56497,-3.50322c0.36954,-3.62434 3.8143,-2.30231 5.96475,-2.12018c1.88311,0.10065 3.75751,0.09788 5.6187,-0.05998l-0.12644,-3.9468c0.04729,-0.05606 18.73722,-4.40113 18.94563,5.42288z" fill="none" fill-rule="evenodd" stroke="#231f20" stroke-width="0.85738" stroke-linecap="round" stroke-linejoin="round"/><path d="M304.06377,140.38315l5.89622,-4.76999l0.85576,7.63409c2.05325,1.49216 3.68062,3.48914 4.66224,5.85324c1.63452,3.92299 1.0012,6.89276 1.0012,6.89276c0,0 3.45259,0.80069 3.48539,5.48443c0.08212,8.94951 -11.02795,13.64104 -24.32486,10.96753c-10.01256,-2.0147 -17.0943,-9.38116 -15.79185,-17.35452c1.16146,-7.18035 4.93279,-9.37486 4.93279,-9.37486l0.15426,-12.30213l7.98166,6.92554c1.82172,-0.62314 3.77323,-0.94487 5.70808,-0.84861c1.83143,0.10503 3.62867,0.42122 5.43911,0.89251z" fill="#f9a41f" fill-rule="evenodd" stroke="none" stroke-width="1" stroke-linecap="butt" stroke-linejoin="miter"/><path d="M316.47919,155.99326c2.03038,0.6089 3.16528,1.71033 3.48539,5.48443c0.47703,5.01053 -5.85167,14.50379 -24.32486,10.96753c-6.29708,-1.18426 -12.80458,-4.85021 -9.64533,-13.03317c2.90175,-7.53622 14.10987,-1.24881 18.9224,-1.60494c4.75641,-0.40342 6.8593,-3.23747 11.56241,-1.81385z" fill="#ffffff" fill-rule="evenodd" stroke="none" stroke-width="1" stroke-linecap="butt" stroke-linejoin="miter"/><path d="M304.06377,140.38315l5.89622,-4.76999l0.85576,7.63409c2.05325,1.49216 3.68062,3.48914 4.66224,5.85324c1.63452,3.92299 1.0012,6.89276 1.0012,6.89276c0,0 3.45259,0.80069 3.48539,5.48443c0.08212,8.94951 -11.02795,13.64104 -24.32486,10.96753c-10.01256,-2.0147 -17.0943,-9.38116 -15.79185,-17.35452c1.16146,-7.18035 4.93279,-9.37486 4.93279,-9.37486l0.15426,-12.30213l7.98166,6.92554c1.82172,-0.62314 3.77323,-0.94487 5.70808,-0.84861c1.83143,0.10503 3.62867,0.42122 5.43911,0.89251z" fill="none" fill-rule="evenodd" stroke="#231f20" stroke-width="0.85738" stroke-linecap="round" stroke-linejoin="round"/><path d="M292.91658,140.33925l0.73351,0.66684" fill="none" fill-rule="evenodd" stroke="#231f20" stroke-width="0.85738" stroke-linecap="round" stroke-linejoin="round"/><path d="M281.03964,158.09073c0,0 -2.34407,-0.0095 -3.55074,-0.11542c-1.26274,-0.15327 -2.52986,-0.35821 -3.80575,-0.66657" fill="none" fill-rule="evenodd" stroke="#231f20" stroke-width="0.85738" stroke-linecap="round" stroke-linejoin="round"/><path d="M273.97099,150.87938c1.40123,0.5581 2.70782,1.22839 3.91976,2.0108c1.26368,0.77809 2.48877,1.71559 3.61484,2.71361" fill="none" fill-rule="evenodd" stroke="#231f20" stroke-width="0.85738" stroke-linecap="round" stroke-linejoin="round"/><path d="M314.11183,148.956c1.51269,3.10023 1.11683,6.41432 -0.78199,7.35649c-1.95051,0.94648 -4.70656,-0.85054 -6.21924,-3.95071c-1.51269,-3.10023 -1.11683,-6.41432 0.78199,-7.35649c1.89444,-0.99384 4.70656,0.85054 6.21924,3.95071z" fill="#ffffff" fill-rule="evenodd" stroke="#231f20" stroke-width="0.85738" stroke-linecap="round" stroke-linejoin="round"/><path d="M309.86953,148.65758c0.05262,0.62044 -0.47223,1.18563 -1.09266,1.23825c-0.62037,0.05262 -1.18563,-0.47223 -1.23825,-1.0926c-0.05262,-0.62044 0.37319,-1.12518 0.98924,-1.22954c0.67211,-0.05701 1.28905,0.46352 1.34167,1.08389v0" fill="#231f20" fill-rule="evenodd" stroke="none" stroke-width="1" stroke-linecap="butt" stroke-linejoin="miter"/><path d="M298.44476,149.0351c1.51269,3.10023 0.86715,6.53966 -1.43657,7.62026c-2.30365,1.08066 -5.40842,-0.53064 -6.86943,-3.63519c-1.51707,-3.15191 -0.86709,-6.53967 1.43657,-7.62026c2.30366,-1.0806 5.40848,0.53064 6.86943,3.63519z" fill="#ffffff" fill-rule="evenodd" stroke="#231f20" stroke-width="0.85738" stroke-linecap="round" stroke-linejoin="round"/><path d="M297.93723,153.95694c-0.15421,0.63798 -0.74389,1.05246 -1.38186,0.89831c-0.63792,-0.15421 -1.05246,-0.74389 -0.89825,-1.38187c0.10686,-0.58185 0.69654,-0.99634 1.27839,-0.88948c0.68088,0.04635 1.15149,0.68338 1.00172,1.37303v0" fill="#231f20" fill-rule="evenodd" stroke="none" stroke-width="1" stroke-linecap="butt" stroke-linejoin="miter"/><path d="M304.5784,156.27364c1.09449,0.01133 3.09328,-0.36652 3.0995,0.9348c-0.05518,0.57747 -1.39225,2.61756 -2.6506,2.51597c-1.25835,-0.10153 -3.43249,-1.79176 -3.20562,-2.80037c0.22687,-1.00861 1.76565,-0.6705 2.75673,-0.6504z" fill="#231f20" fill-rule="evenodd" stroke="#231f20" stroke-width="0.85738" stroke-linecap="round" stroke-linejoin="round"/><path d="M309.05229,162.97603c-0.04546,1.3057 -8.63305,1.35713 -8.46312,-0.3236" fill="none" fill-rule="evenodd" stroke="#231f20" stroke-width="0.85738" stroke-linecap="round" stroke-linejoin="round"/><path d="M278.23342,166.13959c-0.25574,1.89627 -2.62335,3.45098 -5.22586,3.46345c-2.60258,0.01242 -4.44899,-1.49728 -4.14157,-3.39793c0.30742,-1.90071 2.62334,-3.45104 5.22154,-3.51514c2.60251,-0.01248 4.45337,1.5489 4.14589,3.44962z" fill="#f9a41f" fill-rule="evenodd" stroke="none" stroke-width="1" stroke-linecap="butt" stroke-linejoin="miter"/><path d="M278.23342,166.13959c-0.25574,1.89627 -2.62335,3.45098 -5.22586,3.46345c-2.60258,0.01242 -4.44899,-1.49728 -4.14157,-3.39793c0.30742,-1.90071 2.62334,-3.45104 5.22154,-3.51514c2.60251,-0.01248 4.45337,1.5489 4.14589,3.44962z" fill="none" fill-rule="evenodd" stroke="#231f20" stroke-width="0.85738" stroke-linecap="round" stroke-linejoin="round"/><path d="M326.10595,157.75717c-0.93845,0.60034 -1.99786,1.00261 -3.12209,1.25417c-1.54223,0.23497 -3.03716,0.41381 -4.54525,0.43756" fill="none" fill-rule="evenodd" stroke="#231f20" stroke-width="0.85738" stroke-linecap="round" stroke-linejoin="round"/><path d="M324.6544,163.97277c-0.98669,0.03158 -1.98214,-0.0402 -2.98198,-0.16366c-1.26712,-0.20501 -2.43966,-0.52213 -3.57355,-0.99875" fill="none" fill-rule="evenodd" stroke="#231f20" stroke-width="0.85738" stroke-linecap="round" stroke-linejoin="round"/><g fill-rule="nonzero" stroke="#000000" stroke-width="2.5" stroke-linecap="butt" stroke-linejoin="miter"><path d="M207.50157,214.36309l-42.77709,-39.36701l6.02256,-6.54425l42.77709,39.36701z" fill="url(#color-1)"/><path d="M162.10587,178.48218l-6.38464,-5.87568l11.45756,-12.45005l6.38464,5.87567z" fill="url(#color-2)"/><path d="M213.03611,225.64718l-8.61926,-7.93216l11.75135,-12.76928l8.61926,7.93216z" fill="url(#color-3)"/></g></g></g></svg>