<svg version="1.1" xmlns="http://www.w3.org/2000/svg" xmlns:xlink="http://www.w3.org/1999/xlink" width="481.27045" height="372.82103" viewBox="0,0,481.27045,372.82103"><defs><radialGradient cx="25.40285" cy="17.2" r="239.98885" gradientUnits="userSpaceOnUse" id="color-1"><stop offset="0" stop-color="#ff2424"/><stop offset="1" stop-color="#56e0ff"/></radialGradient><linearGradient x1="347.58357" y1="41.24013" x2="628.14561" y2="41.24013" gradientTransform="translate(-211.91072,-36.68147) scale(0.60964,0.60964)" gradientUnits="userSpaceOnUse" id="color-2"><stop offset="0" stop-color="#ff21ad"/><stop offset="1" stop-color="#ff0000"/></linearGradient></defs><g transform="translate(-0.01115,3.63906)"><g data-paper-data="{&quot;isPaintingLayer&quot;:true}" stroke-miterlimit="10" stroke-dasharray="" stroke-dashoffset="0" style="mix-blend-mode: normal"><path d="M0.01115,0h479.9777v360h-479.9777z" fill="url(#color-1)" fill-rule="nonzero" stroke="none" stroke-width="1.00207" stroke-linecap="butt" stroke-linejoin="miter"/><path d="M18.8785,212.4952c9.241,0.498 20.142,5.9208 21.4147,5.1461c1.2728,-0.7747 -2.822,-11.565 5.1462,-14.9405c12.1738,-5.1462 36.4659,14.7745 52.9005,22.5215c3.3201,-1.2728 18.814,-7.9683 29.2723,-9.6284c9.6837,-1.5494 9.1857,2.7115 9.739,3.2095c0.4427,0.3873 6.7509,-1.9368 17.5966,-4.5929c9.905,-2.4347 27.3909,-3.2647 29.6043,4.4822c3.7075,13.1698 -26.2842,16.2685 -46.1495,17.5413c-19.8654,1.2727 -68.837,-0.5534 -94.3466,-1.8261c-29.2723,-1.4387 -41.6674,-9.6283 -40.45,-16.2132c0.7747,-4.1502 7.7469,-6.0869 15.2725,-5.6995z" fill="#e3deee" fill-rule="nonzero" stroke="none" stroke-width="0.55335" stroke-linecap="butt" stroke-linejoin="miter"/><text transform="translate(347.59715,60.16862) scale(1.6403,1.6403)" font-size="40" xml:space="preserve" fill="url(#color-2)" fill-rule="nonzero" stroke="none" stroke-width="1" stroke-linecap="butt" stroke-linejoin="miter" stroke-miterlimit="10" stroke-dasharray="" stroke-dashoffset="0" font-family="Curly" font-weight="normal" text-anchor="start" style="mix-blend-mode: normal"><tspan x="0" dy="0">选择</tspan></text><g fill-rule="evenodd"><path d="M125.4098,242.55229c1.04419,0.98888 3.42754,2.89008 -1.48429,7.63011c-4.9117,4.73981 -16.2743,3.43714 -17.60793,3.15327c-6.0722,-0.94361 -12.07907,-2.84909 -17.43047,-5.86963c-18.17528,-10.55881 -13.92992,-31.81992 -7.0333,-33.76763c7.04406,-1.98617 7.09204,11.54589 14.20517,21.35373c2.88146,3.81932 6.75162,6.59449 11.27741,8.25456c5.45508,2.20632 16.99094,-1.89077 18.07341,-0.7544z" fill="#f9a41f" stroke="none" stroke-width="1" stroke-linecap="butt" stroke-linejoin="miter"/><path d="M89.01547,220.65891c1.92494,4.38247 5.58374,12.40988 5.58374,12.40988c-3.10984,-0.45266 -6.13737,0.01822 -8.93522,1.37457c-3.86322,2.10518 -3.22209,7.60858 -5.3488,5.48316c-2.40033,-3.78661 -3.99218,-8.09811 -4.36518,-12.5686c-0.46089,-6.02264 3.13296,-13.4127 6.5322,-13.66522c3.58523,-0.1432 4.71731,2.39784 6.53327,6.96621z" fill="#ffffff" stroke="none" stroke-width="1" stroke-linecap="butt" stroke-linejoin="miter"/><path d="M125.4098,242.55229c1.04419,0.98888 3.42754,2.89008 -1.48429,7.63011c-4.9117,4.73981 -16.2743,3.43714 -17.60793,3.15327c-6.0722,-0.94361 -12.07907,-2.84909 -17.43047,-5.86963c-18.17528,-10.55881 -13.92992,-31.81992 -7.0333,-33.76763c7.04406,-1.98617 7.09204,11.54589 14.20517,21.35373c2.88146,3.81932 6.75162,6.59449 11.27741,8.25456c5.45508,2.20632 16.99094,-1.89077 18.07341,-0.7544z" fill="none" stroke="#231f20" stroke-width="0.85738" stroke-linecap="round" stroke-linejoin="round"/></g><g fill-rule="evenodd"><path d="M223.01081,233.28057c11.0236,0.60319 29.55954,-6.25595 36.03484,-9.82669c10.33844,-5.67626 17.41045,11.85969 2.86957,18.94152c-14.68849,7.12033 -42.88005,1.05164 -42.88005,1.05164c-7.11065,-1.30392 -7.19549,-10.73155 3.97564,-10.16647z" fill="#f9a41f" stroke="none" stroke-width="1" stroke-linecap="butt" stroke-linejoin="miter"/><path d="M223.01081,233.28057c11.0236,0.60319 29.55954,-6.25595 36.03484,-9.82669c10.33844,-5.67626 17.41045,11.85969 2.86957,18.94152c-14.68849,7.12033 -42.88005,1.05164 -42.88005,1.05164c-7.11065,-1.30392 -7.19549,-10.73155 3.97564,-10.16647z" fill="none" stroke="#231f20" stroke-width="0.85738" stroke-linecap="round" stroke-linejoin="round"/></g><g fill-rule="evenodd"><path d="M140.16337,236.2898c-2.97934,-2.37636 -6.13874,-4.23352 -9.62609,-5.53328c-2.70674,-4.96701 -4.27159,-10.38804 -4.4701,-16.00634c5.83811,3.68187 11.2008,7.95942 16.1266,12.98045c4.10001,3.6606 3.62746,12.76029 -2.03041,8.55918z" fill="#231f20" stroke="#231f20" stroke-width="0.85738" stroke-linecap="round" stroke-linejoin="round" opacity="0.1"/><path d="M140.10386,236.06057c-16.49261,-12.5704 -24.06454,-3.51762 -33.02377,-8.90916c-7.24827,-4.26053 -7.00106,-17.86903 9.17099,-16.24004c11.17683,1.19348 25.73554,16.62836 25.73554,16.62836c4.32424,3.91724 3.8134,12.86944 -1.88276,8.52085z" fill="#f9a41f" stroke="none" stroke-width="1" stroke-linecap="butt" stroke-linejoin="miter"/><path d="M140.10386,236.06057c-16.49261,-12.5704 -24.06454,-3.51762 -33.02377,-8.90916c-7.24827,-4.26053 -7.00106,-17.86903 9.17099,-16.24004c11.17683,1.19348 25.73554,16.62836 25.73554,16.62836c4.32424,3.91724 3.8134,12.86944 -1.88276,8.52085z" fill="none" stroke="#231f20" stroke-width="0.85738" stroke-linecap="round" stroke-linejoin="round"/></g><g fill-rule="evenodd"><path d="M175.43578,250.8277c0,0 -14.9056,11.74401 -43.78143,20.02733c-28.13806,8.09181 -43.68745,5.82854 -43.91421,-2.93218c-0.39126,-10.60803 9.86756,-8.70379 16.22363,-9.09381c5.79837,-0.7177 11.36119,-2.94924 16.06023,-6.68894l-2.13923,-7.63439c0.1092,-0.18577 52.08238,-22.02455 57.55101,6.322z" fill="#f9a41f" stroke="none" stroke-width="1" stroke-linecap="butt" stroke-linejoin="miter"/><path d="M166.05652,248.06526c-0.45266,3.10984 -17.96019,13.32424 -29.33852,14.38811c-4.91311,0.4879 -9.78344,-2.5001 -6.72461,-7.70402c4.55015,-7.95333 25.39856,-12.57785 25.39856,-12.57785z" fill="#ffffff" stroke="none" stroke-width="1" stroke-linecap="butt" stroke-linejoin="miter"/><path d="M175.43578,250.8277c0,0 -14.9056,11.74401 -43.78143,20.02733c-28.13806,8.09181 -43.30446,7.30391 -43.91421,-2.93218c-0.72469,-10.6789 9.90584,-8.5563 16.22363,-9.09381c5.50323,-0.64109 10.93001,-1.57736 16.24172,-2.95622l-2.32071,-11.36711c0.1092,-0.18577 52.08238,-22.02455 57.55101,6.322z" fill="none" stroke="#231f20" stroke-width="0.85738" stroke-linecap="round" stroke-linejoin="round"/></g><g fill-rule="evenodd"><g><path d="M192.38768,158.38869l14.71289,-16.73356l6.25883,21.68411c6.68504,3.30441 12.38677,8.28162 16.40026,14.6418c6.67625,10.55131 6.31289,19.46522 6.31289,19.46522c0,0 10.39503,0.60894 12.8095,14.15656c4.66984,25.8766 -25.18094,44.965 -65.01203,43.80761c-29.99354,-0.876 -54.14992,-18.70178 -54.32668,-42.43718c-0.19237,-21.36907 9.64243,-29.5919 9.64243,-29.5919l-5.6456,-35.70265l26.54414,16.10324c4.96701,-2.70674 10.45913,-4.60489 16.11001,-5.28431c5.35574,-0.6028 10.71701,-0.57716 16.19335,-0.10894z" fill="#f9a41f" stroke="none" stroke-width="1" stroke-linecap="butt" stroke-linejoin="miter"/><path d="M236.07255,197.44626c6.1814,0.75784 10.01346,3.38548 12.8095,14.15656c3.86279,14.27399 -9.76347,44.90005 -65.01203,43.80761c-18.82246,-0.31109 -39.4833,-7.7048 -34.38668,-32.96671c4.67118,-23.26147 40.24294,-10.60403 54.00338,-14.01866c13.5745,-3.52379 18.26086,-12.77242 32.58582,-10.97879z" fill="#ffffff" stroke="none" stroke-width="1" stroke-linecap="butt" stroke-linejoin="miter"/><g fill="none" stroke="#231f20" stroke-width="0.85738" stroke-linecap="round" stroke-linejoin="round"><path d="M192.38768,158.38869l14.71289,-16.73356l6.25883,21.68411c6.68504,3.30441 12.38677,8.28162 16.40026,14.6418c6.67625,10.55131 6.31289,19.46522 6.31289,19.46522c0,0 10.39503,0.60894 12.8095,14.15656c4.66984,25.8766 -25.18094,44.965 -65.01203,43.80761c-29.99354,-0.876 -54.14992,-18.70178 -54.32668,-42.43718c-0.19237,-21.36907 9.64243,-29.5919 9.64243,-29.5919l-5.6456,-35.70265l26.54414,16.10324c4.96701,-2.70674 10.45913,-4.60489 16.11001,-5.28431c5.35574,-0.6028 10.71701,-0.57716 16.19335,-0.10894z"/></g></g><path d="M160.08431,163.78194l2.45444,1.56789" fill="none" stroke="#231f20" stroke-width="0.85738" stroke-linecap="round" stroke-linejoin="round"/></g><g fill="none" fill-rule="evenodd" stroke="#231f20" stroke-width="0.85738" stroke-linecap="round" stroke-linejoin="round"><path d="M134.48034,221.07096c0,0 -6.793,1.13332 -10.3399,1.42418c-3.73271,0.18148 -7.50371,0.21548 -11.35133,-0.04566"/><path d="M110.43869,203.68786c4.33427,0.9223 8.45002,2.21636 12.3472,3.882c4.04488,1.62749 8.05696,3.73576 11.81222,6.0683"/></g><g fill-rule="evenodd"><path d="M225.7318,178.23914c5.91597,8.22897 6.41082,18.02244 1.37851,21.69122c-5.17983,3.7069 -14.05113,-0.13231 -19.96705,-8.36111c-5.91597,-8.22897 -6.41082,-18.02244 -1.37851,-21.69122c4.99402,-3.81627 14.05113,0.13231 19.96705,8.36111z" fill="#ffffff" stroke="#231f20" stroke-width="0.85738" stroke-linecap="round" stroke-linejoin="round"/><path d="M224.08318,184.0219c0.45965,1.77068 -0.78039,3.66737 -2.55107,4.12702c-1.77051,0.4596 -3.66737,-0.78039 -4.12698,-2.5509c-0.45965,-1.77068 0.52353,-3.44327 2.25589,-4.05058c1.91817,-0.49794 3.96256,0.70394 4.42217,2.47446v0" fill="#231f20" stroke="none" stroke-width="1" stroke-linecap="butt" stroke-linejoin="miter"/></g><g fill-rule="evenodd"><path d="M180.40001,186.22693c5.91597,8.22897 5.74983,18.50905 -0.38647,22.77927c-6.13608,4.27035 -15.92527,1.14168 -21.69371,-7.1254c-5.95426,-8.37645 -5.74966,-18.5091 0.38647,-22.77927c6.13613,-4.27018 15.92544,-1.14172 21.69371,7.1254z" fill="#ffffff" stroke="#231f20" stroke-width="0.85738" stroke-linecap="round" stroke-linejoin="round"/><path d="M178.42366,192.56722c-0.13064,1.92392 -1.63306,3.41626 -3.55693,3.2858c-1.92374,-0.13068 -3.41626,-1.63306 -3.28563,-3.55698c0.02131,-1.73793 1.52373,-3.23027 3.26166,-3.20897c1.99474,-0.20296 3.67307,1.40879 3.5809,3.48014v0" fill="#231f20" stroke="none" stroke-width="1" stroke-linecap="butt" stroke-linejoin="miter"/></g><g fill-rule="evenodd" stroke="#231f20" stroke-width="0.85738" stroke-linecap="round" stroke-linejoin="round"><path d="M201.74739,204.15183c3.17518,-0.50921 8.77646,-2.5933 9.4389,1.17217c0.12618,1.69964 -2.7356,8.26978 -6.43003,8.59875c-3.69438,0.32914 -10.82763,-3.48898 -10.67011,-6.52221c0.15752,-3.03323 4.78119,-2.81612 7.66123,-3.24871z" fill="#231f20"/><path d="M218.02271,221.34595c0.51496,3.80376 -24.32873,8.20547 -24.66897,3.25402" fill="none"/></g><g fill-rule="evenodd"><path d="M130.33967,245.76969c0.19846,5.61813 -5.88806,11.29298 -13.41861,12.61794c-7.53077,1.32484 -13.62552,-2.1328 -13.6765,-7.78921c-0.05102,-5.65659 5.88802,-11.29315 13.3805,-12.76547c7.53055,-1.32497 13.66376,2.28011 13.71461,7.93674z" fill="#f9a41f" stroke="none" stroke-width="1" stroke-linecap="butt" stroke-linejoin="miter"/><path d="M130.33967,245.76969c0.19846,5.61813 -5.88806,11.29298 -13.41861,12.61794c-7.53077,1.32484 -13.62552,-2.1328 -13.6765,-7.78921c-0.05102,-5.65659 5.88802,-11.29315 13.3805,-12.76547c7.53055,-1.32497 13.66376,2.28011 13.71461,7.93674z" fill="none" stroke="#231f20" stroke-width="0.85738" stroke-linecap="round" stroke-linejoin="round"/></g><g fill="none" fill-rule="evenodd" stroke="#231f20" stroke-width="0.85738" stroke-linecap="round" stroke-linejoin="round"><path d="M264.82464,197.78705c-2.42039,2.20328 -5.28916,3.89289 -8.42031,5.17816c-4.34984,1.4442 -8.59052,2.70246 -12.9461,3.51808"/><path d="M263.69916,216.50588c-2.84176,0.58008 -5.76008,0.86519 -8.7167,1.00281c-3.77104,0.03383 -7.32369,-0.30389 -10.8434,-1.12261"/></g><path d="M218.39932,306.4913c-1.70669,-12.00065 9.54724,-29.60171 28.53501,-29.60171c27.4683,0 50.45634,32.69528 110.24649,26.18815l12.00065,15.78765l-21.0679,4.48027l-31.25513,1.76014h-30.08171c0,0 -26.02816,-2.02686 -39.62895,-1.76014c-22.24133,0.42672 -26.82832,-7.20039 -28.74845,-16.85436z" fill="#ffffff" fill-rule="nonzero" stroke="#e3deee" stroke-width="0.30736" stroke-linecap="butt" stroke-linejoin="miter"/><path d="M457.55989,313.63842c-7.89365,6.88039 -27.84157,11.36066 -46.02935,11.36066c-8.85381,0 -51.52288,0.05327 -94.56539,0.05327c13.54734,-4.69354 26.24143,-16.26764 31.68185,-20.32119c6.82695,-5.12025 17.49434,-17.49434 26.08143,-20.58774c9.60052,-3.41356 13.65424,0.31999 20.96118,0.69326c6.50713,0.31999 16.64108,-8.96053 36.21556,-9.28052c12.69408,-0.21327 21.97461,3.30684 28.16157,11.36066c6.88039,8.96053 5.3337,19.89447 -2.50685,26.72159z" fill="#e3deee" fill-rule="nonzero" stroke="none" stroke-width="0.30736" stroke-linecap="butt" stroke-linejoin="miter"/><path d="M252.74802,308.57144c13.2808,7.25384 21.33462,13.49407 34.02871,16.53436c-34.1887,0 -63.25698,0 -68.05741,-0.05345c-9.60052,-0.10655 -21.81461,-6.88039 -16.48091,-14.77422c7.25384,-10.66722 31.62858,-12.05392 50.50962,-1.70669z" fill="#e3deee" fill-rule="nonzero" stroke="none" stroke-width="0.30736" stroke-linecap="butt" stroke-linejoin="miter"/><path d="M10.0117,353.5861c3.7955,-2.1236 9.5338,-4.925 15.7692,-6.5968c6.9131,-1.8525 12.3804,-2.5303 15.5884,-2.6658c2.1237,-1.8074 23.3149,-21.1009 51.6,-20.7394c24.7607,0.2711 40.9365,10.4826 45.4097,13.4648c17.6217,-5.9643 28.0592,-6.868 41.2528,-4.654c18.3899,3.1177 16.0403,13.1937 16.4018,13.6907c0.4518,0.6326 7.4101,-1.9881 15.8595,2.44c5.151,2.711 7.6361,7.2746 4.5184,7.2746c-2.4399,0 -202.3332,-0.3163 -207.2131,0c-1.4459,0 -1.2199,-1.0845 0.8133,-2.2141z" fill="#ffffff" fill-rule="nonzero" stroke="#e3deee" stroke-width="0.45184" stroke-linecap="butt" stroke-linejoin="miter"/><path d="M41.3693,344.3235c2.1237,-1.8074 23.3149,-21.1009 51.6,-20.7394c24.7607,0.2711 40.9365,10.4826 45.4097,13.4648c-13.0129,4.1569 -24.0378,11.2056 -35.3789,11.7478c-14.4589,0.6777 -41.8403,-5.0154 -61.6308,-4.4732z" fill="#e3deee" fill-rule="nonzero" stroke="none" stroke-width="0.45184" stroke-linecap="butt" stroke-linejoin="miter"/><path d="M127.7782,234.2972c-11.2884,-1.2727 -18.2606,-2.9881 -29.4937,-9.0196c3.3202,-1.2727 18.814,-7.9683 29.2724,-9.6283c9.6836,-1.5494 9.1856,2.7114 9.739,3.2094c0.4427,0.3873 6.7509,-1.9367 17.5966,-4.5928c9.2409,-2.2688 25.0115,-3.1541 28.9403,2.9881c1.2174,4.7035 -2.1028,9.1303 -9.6283,11.9524c-8.3557,3.0434 -31.2644,6.6955 -46.4263,5.0908z" fill="#ffffff" fill-rule="nonzero" stroke="#e3deee" stroke-width="0.55335" stroke-linecap="butt" stroke-linejoin="miter"/><path d="M222.71964,165.68193c5.392,-5.09239 27.33422,3.8192 38.86693,4.49329c9.96016,-1.12332 17.97316,-3.5947 18.1229,-4.49329c0.14987,-1.12332 -1.87216,-3.07048 0.14987,-5.31712c3.74433,-4.11881 21.49287,-8.23762 40.73909,-7.33903c17.37394,0.82383 36.09606,8.68709 45.45699,10.709c4.7179,-0.89858 28.53241,-6.44032 46.80505,-5.54174c19.54583,0.97358 21.86735,5.91622 23.36503,6.44045c0.5991,0.22462 26.36064,-1.94716 27.18435,2.696c0.97358,5.69148 -27.40897,7.56365 -42.761,7.56365c-15.35203,0 -178.45825,0 -186.02202,0c-9.13632,0 -14.37845,-6.81481 -11.90719,-9.21119z" fill="#ffffff" fill-rule="nonzero" stroke="#e3deee" stroke-width="0.61314" stroke-linecap="butt" stroke-linejoin="miter"/><path d="M432.63092,174.66851c-4.41842,0.22462 -8.53722,0.29949 -12.05694,0.29949c-15.35215,0 -178.45825,0 -186.02202,0c-9.13632,0 -14.37845,-6.88968 -11.90719,-9.21119c0.89871,-0.89871 2.39651,-1.34806 4.1938,-1.4978c-2.84574,0.67397 -4.41842,2.0969 -2.77087,4.56816c1.72242,2.39639 5.24213,4.56816 11.23322,4.64303c5.99097,0.14987 16.55022,-1.49768 26.21077,-3.2201c9.96016,-1.12332 17.97316,-3.5947 18.1229,-4.49329c0.37448,-0.5991 -0.44935,-1.87229 0.22474,-3.22022c0.44923,-0.89858 1.79729,-2.0969 4.11881,-3.07036c5.46687,-2.32152 20.36954,-5.99109 38.26783,-4.56816c17.89816,1.42281 32.80096,7.86313 44.2588,11.2331c11.53271,3.29509 36.99464,8.76196 66.12615,8.53735z" fill="#e3deee" fill-rule="nonzero" stroke="none" stroke-width="0.61314" stroke-linecap="butt" stroke-linejoin="miter"/><text transform="translate(276.59715,354.40078) scale(0.89583,0.89583)" font-size="40" xml:space="preserve" fill="#f5ff33" fill-rule="nonzero" stroke="none" stroke-width="1" stroke-linecap="butt" stroke-linejoin="miter" stroke-miterlimit="10" stroke-dasharray="" stroke-dashoffset="0" font-family="Handwriting" font-weight="normal" text-anchor="start" style="mix-blend-mode: normal"><tspan x="0" dy="0">按下V键开始</tspan></text></g></g></svg>