<svg version="1.1" xmlns="http://www.w3.org/2000/svg" xmlns:xlink="http://www.w3.org/1999/xlink" width="176.5" height="109.16625" viewBox="0,0,176.5,109.16625"><g transform="translate(-151.75,-124.47969)"><g data-paper-data="{&quot;isPaintingLayer&quot;:true}" stroke-miterlimit="10" stroke-dasharray="" stroke-dashoffset="0" style="mix-blend-mode: normal"><path d="M153,227v-94h174v94z" fill="#00ff22" fill-rule="nonzero" stroke="#000000" stroke-width="2.5" stroke-linecap="butt" stroke-linejoin="miter"/><text transform="translate(153,170.59719) scale(1.075,1.075)" font-size="40" xml:space="preserve" fill="#002dff" fill-rule="nonzero" stroke="none" stroke-width="1" stroke-linecap="butt" stroke-linejoin="miter" stroke-miterlimit="10" stroke-dasharray="" stroke-dashoffset="0" font-family="Sans Serif" font-weight="normal" text-anchor="start" style="mix-blend-mode: normal"><tspan x="0" dy="0">普通</tspan><tspan x="0" dy="46.150000000000006px">模式</tspan></text><text transform="translate(237.97814,153.69302) scale(0.63081,0.63081)" font-size="40" xml:space="preserve" fill="#002dff" fill-rule="nonzero" stroke="none" stroke-width="1" stroke-linecap="butt" stroke-linejoin="miter" stroke-miterlimit="10" stroke-dasharray="" stroke-dashoffset="0" font-family="Sans Serif" font-weight="normal" text-anchor="start" style="mix-blend-mode: normal"><tspan x="0" dy="0">speed=</tspan><tspan x="0" dy="46.150000000000006px">      5</tspan></text><g fill-rule="evenodd"><g><path d="M260.65863,210.83749c0.28576,0.4572 0.97153,1.37161 -1.25736,2.62896c-2.22882,1.25729 -6.22932,-0.28576 -6.68652,-0.51439c-2.11457,-0.9144 -4.11482,-2.17169 -5.77218,-3.77187c-5.60074,-5.54361 -2.05744,-12.85885 0.62864,-12.91597c2.74321,-0.05719 1.48592,4.85778 3.14322,9.08685c0.68584,1.65737 1.82881,3.02897 3.31473,4.05769c1.77168,1.31448 6.3437,0.9144 6.62946,1.42873z" fill="#f9a41f" stroke="none" stroke-width="1" stroke-linecap="butt" stroke-linejoin="miter"/><path d="M249.51434,199.46463c0.28569,1.77162 0.85721,5.02922 0.85721,5.02922c-1.08585,-0.4572 -2.22882,-0.57152 -3.37186,-0.34288c-1.60017,0.40001 -1.88593,2.45745 -2.45745,1.48586c-0.51433,-1.60017 -0.68584,-3.31466 -0.40008,-4.97203c0.40008,-2.22888 2.40033,-4.57202 3.65762,-4.34345c1.31448,0.28576 1.48592,1.31448 1.71456,3.14329z" fill="#ffffff" stroke="none" stroke-width="1" stroke-linecap="butt" stroke-linejoin="miter"/><path d="M260.65863,210.83749c0.28576,0.4572 0.97153,1.37161 -1.25736,2.62896c-2.22882,1.25729 -6.22932,-0.28576 -6.68652,-0.51439c-2.11457,-0.9144 -4.11482,-2.17169 -5.77218,-3.77187c-5.60074,-5.54361 -2.05744,-12.85885 0.62864,-12.91597c2.74321,-0.05719 1.48592,4.85778 3.14322,9.08685c0.68584,1.65737 1.82881,3.02897 3.31473,4.05769c1.77168,1.31448 6.3437,0.9144 6.62946,1.42873z" fill="none" stroke="#231f20" stroke-width="0.85738" stroke-linecap="round" stroke-linejoin="round"/></g><g><path d="M296.94903,216.66687c3.94337,1.25729 11.31573,0.51433 14.00182,-0.17144c4.28626,-1.08591 5.20066,5.94363 -0.74296,7.14372c-6.00082,1.20016 -15.65918,-3.65762 -15.65918,-3.65762c-2.45745,-1.14297 -1.60017,-4.57202 2.40033,-3.31466z" fill="#f9a41f" stroke="none" stroke-width="1" stroke-linecap="butt" stroke-linejoin="miter"/><path d="M296.94903,216.66687c3.94337,1.25729 11.31573,0.51433 14.00182,-0.17144c4.28626,-1.08591 5.20066,5.94363 -0.74296,7.14372c-6.00082,1.20016 -15.65918,-3.65762 -15.65918,-3.65762c-2.45745,-1.14297 -1.60017,-4.57202 2.40033,-3.31466z" fill="none" stroke="#231f20" stroke-width="0.85738" stroke-linecap="round" stroke-linejoin="round"/></g><g><path d="M266.60226,209.95475c-0.85728,-1.14297 -1.82881,-2.1145 -2.97185,-2.91465c-0.51433,-2.05738 -0.57152,-4.17194 -0.11432,-6.22938c1.77168,1.886 3.31473,3.94337 4.62921,6.22938c1.14297,1.71456 0.11432,4.9721 -1.54305,2.91465z" fill="#231f20" stroke="#231f20" stroke-width="0.85738" stroke-linecap="round" stroke-linejoin="round" opacity="0.1"/><path d="M266.60226,209.86596c-4.80065,-6.11507 -8.40108,-3.5433 -11.14429,-6.3437c-2.22888,-2.22882 -0.85728,-7.14372 4.85771,-5.02922c3.94337,1.48592 7.77243,8.45827 7.77243,8.45827c1.20016,1.82881 0.17151,5.02922 -1.48586,2.91465z" fill="#f9a41f" stroke="none" stroke-width="1" stroke-linecap="butt" stroke-linejoin="miter"/><path d="M266.60226,209.86596c-4.80065,-6.11507 -8.40108,-3.5433 -11.14429,-6.3437c-2.22888,-2.22882 -0.85728,-7.14372 4.85771,-5.02922c3.94337,1.48592 7.77243,8.45827 7.77243,8.45827c1.20016,1.82881 0.17151,5.02922 -1.48586,2.91465z" fill="none" stroke="#231f20" stroke-width="0.85738" stroke-linecap="round" stroke-linejoin="round"/></g><g><path d="M278.03231,218.5528c0,0 -6.51514,2.85753 -17.77375,3.14329c-10.97285,0.28576 -16.40214,-2.00025 -15.65918,-5.20066c0.85728,-3.88625 4.40058,-2.22888 6.74378,-1.77168c2.17169,0.28576 4.40051,0 6.45795,-0.9144l-0.05713,-2.97185c0.05713,-0.05713 20.9741,-3.0861 20.28833,7.71531z" fill="#f9a41f" stroke="none" stroke-width="1" stroke-linecap="butt" stroke-linejoin="miter"/><path d="M274.88902,216.66687c-0.4572,1.08585 -7.77243,3.14322 -12.00157,2.45745c-1.82881,-0.28576 -3.31466,-1.82881 -1.71449,-3.42905c2.40033,-2.45745 10.40133,-2.17169 10.40133,-2.17169z" fill="#ffffff" stroke="none" stroke-width="1" stroke-linecap="butt" stroke-linejoin="miter"/><path d="M278.03231,218.5528c0,0 -6.51514,2.85753 -17.77375,3.14329c-10.97285,0.28576 -16.40214,-1.4288 -15.65918,-5.20066c0.74296,-3.94337 4.40058,-2.17176 6.74378,-1.77168c2.05738,0.28576 4.11482,0.4572 6.17219,0.4572l0.22863,-4.34345c0.05713,-0.05713 20.9741,-3.0861 20.28833,7.71531z" fill="none" stroke="#231f20" stroke-width="0.85738" stroke-linecap="round" stroke-linejoin="round"/></g><g><g><path d="M292.89134,186.60579l6.91522,-4.68627l0.22857,8.4582c2.11457,1.82881 3.71474,4.17201 4.57202,6.85803c1.42873,4.4577 0.4572,7.65812 0.4572,7.65812c0,0 3.71474,1.20016 3.31473,6.3437c-0.74296,9.82987 -13.37317,13.94469 -27.71787,9.77268c-10.8014,-3.14322 -17.888,-11.88725 -15.71631,-20.51689c1.94312,-7.77243 6.28651,-9.82987 6.28651,-9.82987l1.31448,-13.48742l8.11532,8.34389c2.05738,-0.51433 4.22913,-0.68577 6.3437,-0.40001c2.00025,0.28576 3.94331,0.80009 5.88643,1.48586z" fill="#f9a41f" stroke="none" stroke-width="1" stroke-linecap="butt" stroke-linejoin="miter"/><path d="M305.06434,204.89387c2.17169,0.85728 3.31473,2.17176 3.31473,6.3437c0.05713,5.54355 -7.77243,15.37342 -27.71787,9.77268c-6.8009,-1.88593 -13.60174,-6.51514 -9.37267,-15.20198c3.88625,-8.001 15.60206,-0.05713 20.91704,0c5.25779,0 7.82956,-2.91465 12.85878,-0.9144z" fill="#ffffff" stroke="none" stroke-width="1" stroke-linecap="butt" stroke-linejoin="miter"/><g fill="none" stroke="#231f20" stroke-width="0.85738" stroke-linecap="round" stroke-linejoin="round"><path d="M292.89134,186.60579l6.91522,-4.68627l0.22857,8.4582c2.11457,1.82881 3.71474,4.17201 4.57202,6.85803c1.42873,4.4577 0.4572,7.65812 0.4572,7.65812c0,0 3.71474,1.20016 3.31473,6.3437c-0.74296,9.82987 -13.37317,13.94469 -27.71787,9.77268c-10.8014,-3.14322 -17.888,-11.88725 -15.71631,-20.51689c1.94312,-7.77243 6.28651,-9.82987 6.28651,-9.82987l1.31448,-13.48742l8.11532,8.34389c2.05738,-0.51433 4.22913,-0.68577 6.3437,-0.40001c2.00025,0.28576 3.94331,0.80009 5.88643,1.48586z"/></g></g><path d="M280.6612,185.51994l0.74296,0.80015" fill="none" stroke="#231f20" stroke-width="0.85738" stroke-linecap="round" stroke-linejoin="round"/></g><g fill="none" stroke="#231f20" stroke-width="0.85738" stroke-linecap="round" stroke-linejoin="round"><path d="M265.97361,203.89687c0,0 -2.57177,-0.22863 -3.88625,-0.4572c-1.37161,-0.28576 -2.74321,-0.62864 -4.11482,-1.08585"/><path d="M258.88695,195.32429c1.48592,0.74296 2.85753,1.60024 4.11482,2.57177c1.31448,0.9716 2.57177,2.11457 3.71474,3.31473"/></g><g><path d="M303.12122,196.94999c1.37161,3.54336 0.62864,7.14379 -1.54305,8.00107c-2.22882,0.85721 -5.08635,-1.37161 -6.45795,-4.9149c-1.37161,-3.54336 -0.62864,-7.14379 1.54305,-8.00107c2.17169,-0.9144 5.08635,1.37161 6.45795,4.9149z" fill="#ffffff" stroke="#231f20" stroke-width="0.85738" stroke-linecap="round" stroke-linejoin="round"/><path d="M301.97825,198.89312c0,0.68584 -0.62864,1.25729 -1.31448,1.25729c-0.68577,0 -1.25729,-0.62864 -1.25729,-1.31441c0,-0.68584 0.51433,-1.20016 1.20016,-1.25736c0.74296,0 1.37161,0.62871 1.37161,1.31448v0" fill="#231f20" stroke="none" stroke-width="1" stroke-linecap="butt" stroke-linejoin="miter"/></g><g><path d="M285.91899,195.57839c1.37161,3.54336 0.34295,7.25811 -2.28601,8.22963c-2.62889,0.9716 -5.88643,-1.08585 -7.20091,-4.62914c-1.37161,-3.60049 -0.34288,-7.25811 2.28601,-8.22963c2.62889,-0.97153 5.8865,1.08585 7.20091,4.62914z" fill="#ffffff" stroke="#231f20" stroke-width="0.85738" stroke-linecap="round" stroke-linejoin="round"/><path d="M284.60458,197.69295c-0.22863,0.68584 -0.9144,1.08585 -1.60024,0.85728c-0.68577,-0.22863 -1.08585,-0.9144 -0.85721,-1.60024c0.17144,-0.62864 0.85721,-1.02865 1.48586,-0.85721c0.74296,0.11425 1.20016,0.85721 0.9716,1.60017v0" fill="#231f20" stroke="none" stroke-width="1" stroke-linecap="butt" stroke-linejoin="miter"/></g><g stroke="#231f20" stroke-width="0.85738" stroke-linecap="round" stroke-linejoin="round"><path d="M291.97693,204.09378c1.20016,0.11432 3.42905,-0.11432 3.31473,1.31448c-0.11432,0.62864 -1.77168,2.74321 -3.14329,2.51458c-1.37161,-0.22857 -3.60042,-2.28601 -3.25754,-3.37186c0.34288,-1.08585 2.00025,-0.57152 3.0861,-0.4572z" fill="#231f20"/><path d="M296.26319,211.86621c-0.17144,1.4288 -9.60124,0.68584 -9.25829,-1.14297" fill="none"/></g><g><path d="M262.14449,212.46939c-0.4572,2.05738 -3.20041,3.5433 -6.05788,3.31473c-2.85753,-0.22863 -4.74346,-2.05744 -4.22913,-4.11482c0.51433,-2.05744 3.20041,-3.54336 6.05794,-3.37186c2.85746,0.22857 4.74346,2.1145 4.22907,4.17194z" fill="#f9a41f" stroke="none" stroke-width="1" stroke-linecap="butt" stroke-linejoin="miter"/><path d="M262.14449,212.46939c-0.4572,2.05738 -3.20041,3.5433 -6.05788,3.31473c-2.85753,-0.22863 -4.74346,-2.05744 -4.22913,-4.11482c0.51433,-2.05744 3.20041,-3.54336 6.05794,-3.37186c2.85746,0.22857 4.74346,2.1145 4.22907,4.17194z" fill="none" stroke="#231f20" stroke-width="0.85738" stroke-linecap="round" stroke-linejoin="round"/></g><g fill="none" stroke="#231f20" stroke-width="0.85738" stroke-linecap="round" stroke-linejoin="round"><path d="M315.46567,207.72593c-1.08585,0.57152 -2.28601,0.9144 -3.5433,1.08585c-1.71449,0.11432 -3.37186,0.17144 -5.02922,0.05713"/><path d="M313.29398,214.41252c-1.08585,-0.05719 -2.17169,-0.22863 -3.25754,-0.4572c-1.37161,-0.34295 -2.62896,-0.80015 -3.82906,-1.4288"/></g></g></g></g></svg>