<svg version="1.1" xmlns="http://www.w3.org/2000/svg" xmlns:xlink="http://www.w3.org/1999/xlink" width="176.5" height="109.16625" viewBox="0,0,176.5,109.16625"><g transform="translate(-151.75,-124.47969)"><g data-paper-data="{&quot;isPaintingLayer&quot;:true}" stroke-miterlimit="10" stroke-dasharray="" stroke-dashoffset="0" style="mix-blend-mode: normal"><path d="M153,227v-94h174v94z" fill="#faff00" fill-rule="nonzero" stroke="#000000" stroke-width="2.5" stroke-linecap="butt" stroke-linejoin="miter"/><text transform="translate(153,170.59719) scale(1.075,1.075)" font-size="40" xml:space="preserve" fill="#002dff" fill-rule="nonzero" stroke="none" stroke-width="1" stroke-linecap="butt" stroke-linejoin="miter" stroke-miterlimit="10" stroke-dasharray="" stroke-dashoffset="0" font-family="Sans Serif" font-weight="normal" text-anchor="start" style="mix-blend-mode: normal"><tspan x="0" dy="0">困难</tspan><tspan x="0" dy="46.150000000000006px">模式</tspan></text><text transform="translate(239.11954,155.59534) scale(0.63081,0.63081)" font-size="40" xml:space="preserve" fill="#002dff" fill-rule="nonzero" stroke="none" stroke-width="1" stroke-linecap="butt" stroke-linejoin="miter" stroke-miterlimit="10" stroke-dasharray="" stroke-dashoffset="0" font-family="Sans Serif" font-weight="normal" text-anchor="start" style="mix-blend-mode: normal"><tspan x="0" dy="0">speed=</tspan><tspan x="0" dy="46.150000000000006px">      8</tspan></text><g fill-rule="evenodd"><path d="M261.82524,211.26238c0.27968,0.44747 0.95085,1.34241 -1.23059,2.573c-2.18138,1.23053 -6.09672,-0.27968 -6.54419,-0.50344c-2.06956,-0.89494 -4.02723,-2.12547 -5.64932,-3.69158c-5.48152,-5.42562 -2.01365,-12.58514 0.61526,-12.64105c2.68482,-0.05597 1.45429,4.75438 3.07632,8.89343c0.67124,1.62209 1.78988,2.9645 3.24417,3.97132c1.73397,1.2865 6.20867,0.89494 6.48835,1.39832z" fill="#f9a41f" stroke="none" stroke-width="1" stroke-linecap="butt" stroke-linejoin="miter"/><path d="M250.91816,200.1316c0.27961,1.73391 0.83897,4.92217 0.83897,4.92217c-1.06273,-0.44747 -2.18138,-0.55935 -3.30008,-0.33559c-1.56611,0.3915 -1.84579,2.40514 -2.40514,1.45423c-0.50338,-1.56611 -0.67124,-3.24411 -0.39156,-4.8662c0.39156,-2.18144 2.34923,-4.4747 3.57976,-4.251c1.2865,0.27968 1.45429,1.2865 1.67806,3.07638z" fill="#ffffff" stroke="none" stroke-width="1" stroke-linecap="butt" stroke-linejoin="miter"/><path d="M261.82524,211.26238c0.27968,0.44747 0.95085,1.34241 -1.23059,2.573c-2.18138,1.23053 -6.09672,-0.27968 -6.54419,-0.50344c-2.06956,-0.89494 -4.02723,-2.12547 -5.64932,-3.69158c-5.48152,-5.42562 -2.01365,-12.58514 0.61526,-12.64105c2.68482,-0.05597 1.45429,4.75438 3.07632,8.89343c0.67124,1.62209 1.78988,2.9645 3.24417,3.97132c1.73397,1.2865 6.20867,0.89494 6.48835,1.39832z" fill="none" stroke="#231f20" stroke-width="0.85738" stroke-linecap="round" stroke-linejoin="round"/></g><g fill-rule="evenodd"><path d="M297.34317,216.96767c3.85944,1.23053 11.07487,0.50338 13.70378,-0.16779c4.19502,-1.0628 5.08996,5.81711 -0.72715,6.99166c-5.87309,1.17462 -15.32587,-3.57976 -15.32587,-3.57976c-2.40514,-1.11864 -1.56611,-4.4747 2.34923,-3.24411z" fill="#f9a41f" stroke="none" stroke-width="1" stroke-linecap="butt" stroke-linejoin="miter"/><path d="M297.34317,216.96767c3.85944,1.23053 11.07487,0.50338 13.70378,-0.16779c4.19502,-1.0628 5.08996,5.81711 -0.72715,6.99166c-5.87309,1.17462 -15.32587,-3.57976 -15.32587,-3.57976c-2.40514,-1.11864 -1.56611,-4.4747 2.34923,-3.24411z" fill="none" stroke="#231f20" stroke-width="0.85738" stroke-linecap="round" stroke-linejoin="round"/></g><g fill-rule="evenodd"><path d="M267.64235,210.39843c-0.83903,-1.11864 -1.78988,-2.06949 -2.90859,-2.85261c-0.50338,-2.01358 -0.55935,-4.08314 -0.11188,-6.09679c1.73397,1.84585 3.24417,3.85944 4.53068,6.09679c1.11864,1.67806 0.11188,4.86626 -1.5102,2.85261z" fill="#231f20" stroke="#231f20" stroke-width="0.85738" stroke-linecap="round" stroke-linejoin="round" opacity="0.1"/><path d="M267.64235,210.31153c-4.69847,-5.9849 -8.22225,-3.46788 -10.90708,-6.20867c-2.18144,-2.18138 -0.83903,-6.99166 4.75431,-4.92217c3.85944,1.45429 7.60699,8.27823 7.60699,8.27823c1.17462,1.78988 0.16786,4.92217 -1.45423,2.85261z" fill="#f9a41f" stroke="none" stroke-width="1" stroke-linecap="butt" stroke-linejoin="miter"/><path d="M267.64235,210.31153c-4.69847,-5.9849 -8.22225,-3.46788 -10.90708,-6.20867c-2.18144,-2.18138 -0.83903,-6.99166 4.75431,-4.92217c3.85944,1.45429 7.60699,8.27823 7.60699,8.27823c1.17462,1.78988 0.16786,4.92217 -1.45423,2.85261z" fill="none" stroke="#231f20" stroke-width="0.85738" stroke-linecap="round" stroke-linejoin="round"/></g><g fill-rule="evenodd"><path d="M278.8291,218.81346c0,0 -6.37647,2.7967 -17.39542,3.07638c-10.73928,0.27968 -16.05301,-1.95767 -15.32587,-5.08996c0.83903,-3.80353 4.30691,-2.18144 6.60023,-1.73397c2.12547,0.27968 4.30684,0 6.32049,-0.89494l-0.05591,-2.90859c0.05591,-0.05591 20.52765,-3.02041 19.85648,7.55108z" fill="#f9a41f" stroke="none" stroke-width="1" stroke-linecap="butt" stroke-linejoin="miter"/><path d="M275.75272,216.96767c-0.44747,1.06273 -7.60699,3.07632 -11.74611,2.40514c-1.78988,-0.27968 -3.24411,-1.78988 -1.678,-3.35606c2.34923,-2.40514 10.17993,-2.12547 10.17993,-2.12547z" fill="#ffffff" stroke="none" stroke-width="1" stroke-linecap="butt" stroke-linejoin="miter"/><path d="M278.8291,218.81346c0,0 -6.37647,2.7967 -17.39542,3.07638c-10.73928,0.27968 -16.05301,-1.39838 -15.32587,-5.08996c0.72715,-3.85944 4.30691,-2.12553 6.60023,-1.73397c2.01358,0.27968 4.02723,0.44747 6.04081,0.44747l0.22377,-4.251c0.05591,-0.05591 20.52765,-3.02041 19.85648,7.55108z" fill="none" stroke="#231f20" stroke-width="0.85738" stroke-linecap="round" stroke-linejoin="round"/></g><g fill-rule="evenodd"><g><path d="M293.37184,187.54646l6.76803,-4.58652l0.2237,8.27816c2.06956,1.78988 3.63567,4.08321 4.4747,6.71205c1.39832,4.36282 0.44747,7.49511 0.44747,7.49511c0,0 3.63567,1.17462 3.24417,6.20867c-0.72715,9.62064 -13.08852,13.64787 -27.12788,9.56467c-10.57149,-3.07632 -17.50724,-11.63422 -15.38178,-20.08018c1.90176,-7.60699 6.1527,-9.62064 6.1527,-9.62064l1.2865,-13.20034l7.94258,8.16628c2.01358,-0.50338 4.13911,-0.67117 6.20867,-0.3915c1.95767,0.27968 3.85937,0.78306 5.76114,1.45423z" fill="#f9a41f" stroke="none" stroke-width="1" stroke-linecap="butt" stroke-linejoin="miter"/><path d="M305.28574,205.44527c2.12547,0.83903 3.24417,2.12553 3.24417,6.20867c0.05591,5.42555 -7.60699,15.04619 -27.12788,9.56467c-6.65614,-1.84579 -13.31222,-6.37647 -9.17317,-14.8784c3.80353,-7.83069 15.26996,-0.05591 20.47181,0c5.14587,0 7.6629,-2.85261 12.58507,-0.89494z" fill="#ffffff" stroke="none" stroke-width="1" stroke-linecap="butt" stroke-linejoin="miter"/><g fill="none" stroke="#231f20" stroke-width="0.85738" stroke-linecap="round" stroke-linejoin="round"><path d="M293.37184,187.54646l6.76803,-4.58652l0.2237,8.27816c2.06956,1.78988 3.63567,4.08321 4.4747,6.71205c1.39832,4.36282 0.44747,7.49511 0.44747,7.49511c0,0 3.63567,1.17462 3.24417,6.20867c-0.72715,9.62064 -13.08852,13.64787 -27.12788,9.56467c-10.57149,-3.07632 -17.50724,-11.63422 -15.38178,-20.08018c1.90176,-7.60699 6.1527,-9.62064 6.1527,-9.62064l1.2865,-13.20034l7.94258,8.16628c2.01358,-0.50338 4.13911,-0.67117 6.20867,-0.3915c1.95767,0.27968 3.85937,0.78306 5.76114,1.45423z"/></g></g><path d="M281.40204,186.48373l0.72715,0.78312" fill="none" stroke="#231f20" stroke-width="0.85738" stroke-linecap="round" stroke-linejoin="round"/></g><g fill="none" fill-rule="evenodd" stroke="#231f20" stroke-width="0.85738" stroke-linecap="round" stroke-linejoin="round"><path d="M267.02708,204.4695c0,0 -2.51703,-0.22377 -3.80353,-0.44747c-1.34241,-0.27968 -2.68482,-0.61526 -4.02723,-1.06273"/><path d="M260.09126,196.07938c1.45429,0.72715 2.7967,1.56618 4.02723,2.51703c1.2865,0.95091 2.51703,2.06956 3.63567,3.24417"/></g><g fill-rule="evenodd"><path d="M303.38398,197.67048c1.34241,3.46794 0.61526,6.99173 -1.5102,7.83076c-2.18138,0.83897 -4.97808,-1.34241 -6.32049,-4.81029c-1.34241,-3.46794 -0.61526,-6.99173 1.5102,-7.83076c2.12547,-0.89494 4.97808,1.34241 6.32049,4.81029z" fill="#ffffff" stroke="#231f20" stroke-width="0.85738" stroke-linecap="round" stroke-linejoin="round"/><path d="M302.26534,199.57225c0,0.67124 -0.61526,1.23053 -1.2865,1.23053c-0.67117,0 -1.23053,-0.61526 -1.23053,-1.28644c0,-0.67124 0.50338,-1.17462 1.17462,-1.23059c0.72715,0 1.34241,0.61533 1.34241,1.2865v0" fill="#231f20" stroke="none" stroke-width="1" stroke-linecap="butt" stroke-linejoin="miter"/></g><g fill-rule="evenodd"><path d="M286.54791,196.32807c1.34241,3.46794 0.33565,7.10361 -2.23735,8.05446c-2.57294,0.95091 -5.76114,-1.06273 -7.04764,-4.53061c-1.34241,-3.52385 -0.33559,-7.10361 2.23735,-8.05446c2.57294,-0.95085 5.7612,1.06273 7.04764,4.53061z" fill="#ffffff" stroke="#231f20" stroke-width="0.85738" stroke-linecap="round" stroke-linejoin="round"/><path d="M285.26147,198.39763c-0.22377,0.67124 -0.89494,1.06273 -1.56618,0.83903c-0.67117,-0.22377 -1.06273,-0.89494 -0.83897,-1.56618c0.16779,-0.61526 0.83897,-1.00676 1.45423,-0.83897c0.72715,0.11182 1.17462,0.83897 0.95091,1.56611v0" fill="#231f20" stroke="none" stroke-width="1" stroke-linecap="butt" stroke-linejoin="miter"/></g><path d="M292.4769,204.66221c1.17462,0.11188 3.35606,-0.11188 3.24417,1.2865c-0.11188,0.61526 -1.73397,2.68482 -3.07638,2.46105c-1.34241,-0.2237 -3.52379,-2.23735 -3.1882,-3.30008c0.33559,-1.06273 1.95767,-0.55935 3.02041,-0.44747z" fill="#231f20" fill-rule="evenodd" stroke="#231f20" stroke-width="0.85738" stroke-linecap="round" stroke-linejoin="round"/><path d="M287.60177,211.88401c0.16779,-1.39838 9.39687,-0.67124 9.06122,1.11864" data-paper-data="{&quot;index&quot;:null}" fill="none" fill-rule="evenodd" stroke="#231f20" stroke-width="0.85738" stroke-linecap="round" stroke-linejoin="round"/><g fill-rule="evenodd"><path d="M263.27946,212.85954c-0.44747,2.01358 -3.13229,3.46788 -5.92893,3.24417c-2.7967,-0.22377 -4.64249,-2.01365 -4.13911,-4.02723c0.50338,-2.01365 3.13229,-3.46794 5.929,-3.30008c2.79664,0.2237 4.64249,2.06949 4.13905,4.08314z" fill="#f9a41f" stroke="none" stroke-width="1" stroke-linecap="butt" stroke-linejoin="miter"/><path d="M263.27946,212.85954c-0.44747,2.01358 -3.13229,3.46788 -5.92893,3.24417c-2.7967,-0.22377 -4.64249,-2.01365 -4.13911,-4.02723c0.50338,-2.01365 3.13229,-3.46794 5.929,-3.30008c2.79664,0.2237 4.64249,2.06949 4.13905,4.08314z" fill="none" stroke="#231f20" stroke-width="0.85738" stroke-linecap="round" stroke-linejoin="round"/></g><g fill="none" fill-rule="evenodd" stroke="#231f20" stroke-width="0.85738" stroke-linecap="round" stroke-linejoin="round"><path d="M315.46567,208.21705c-1.06273,0.55935 -2.23735,0.89494 -3.46788,1.06273c-1.678,0.11188 -3.30008,0.16779 -4.92217,0.05591"/><path d="M313.34021,214.76131c-1.06273,-0.05597 -2.12547,-0.22377 -3.1882,-0.44747c-1.34241,-0.33565 -2.573,-0.78312 -3.74755,-1.39838"/></g></g></g></svg>